<svg xmlns="http://www.w3.org/2000/svg" xmlns:xlink="http://www.w3.org/1999/xlink" version="1.1" x="0px" y="0px" viewBox="0 0 2000 2000" style="enable-background:new 0 0 2000 2000;" xml:space="preserve">
<style type="text/css">
	.st0{fill:none;}
	.st1{fill:none;}
	.st2{clip-path:url(#SVGID_00000153691968656006748150000003791000404316473493_);}
</style>
<g id="Capa_2">
	<rect class="st0" width="2000" height="2000"/>
</g>
<g id="Capa_1" style="&#10; fill: currentColor;&#10;">
	<g>
		<path d="M1477.89,978.15c0.5-9.24,2.35-14.12,7.06-19.5c6.55-7.4,15.97-11.09,28.4-11.09c20,0,33.11,11.6,33.11,29.24    c0,12.1-6.55,20.34-19.5,24.71c8.24,2.52,12.44,5.04,15.8,8.91c4.2,4.71,6.55,11.77,6.55,19.33c0,8.91-3.53,17.65-9.75,23.7    c-6.55,6.55-15.63,9.75-27.56,9.75c-22.02,0-35.8-12.44-35.8-31.93v-1.18h22.52c0.17,9.92,4.54,14.96,13.45,14.96    c9.41,0,14.62-5.88,14.62-16.47c0-11.93-5.38-16.81-18.82-16.81h-3.87v-18.82h1.68c12.94,0,18.66-4.37,18.66-14.45    c0-8.74-4.2-13.11-12.44-13.11c-7.73,0-12.1,4.2-12.94,12.77H1477.89z"/>
		<path d="M1584.29,995.63c5.21-2.52,10.42-3.87,15.8-3.87c18.82,0,31.93,14.62,31.93,34.79c0,10.59-3.53,19.83-10.08,26.56    c-6.89,6.89-16.47,10.42-28.74,10.42c-12.77,0-22.52-3.53-29.41-10.76c-6.55-6.72-10.42-16.98-10.42-27.73    c0-13.61,3.7-24.87,13.45-39.83l23.19-35.8h26.39L1584.29,995.63z M1575.55,1027.73c0,11.26,6.89,18.49,16.98,18.49    c10.76,0,16.98-6.89,16.98-18.49c0-11.26-6.72-18.66-16.81-18.66S1575.55,1016.98,1575.55,1027.73z"/>
		<path d="M1708.16,963.86c5.88,9.24,8.07,21.35,8.07,42.19c0,16.98-2.35,30.08-6.89,38.99c-6.05,11.43-18.15,18.15-33.61,18.15    c-11.26,0-22.19-4.54-28.07-11.77c-7.23-8.91-10.92-24.2-10.92-44.88c0-21.01,2.02-33.11,7.9-42.52    c6.22-10.25,17.65-16.3,31.26-16.3C1690,947.73,1701.94,953.61,1708.16,963.86z M1693.7,996.47c0-2.02-0.34-6.39-0.84-10.92    c-1.18-8.57-2.18-12.27-5.38-15.13c-2.69-3.19-6.89-4.71-11.09-4.71c-8.24,0-13.45,4.71-15.46,13.95    c-0.5,2.52-1.01,6.39-1.51,12.94c-0.17,1.85-0.17,3.03-0.17,3.87v17.98c0,2.02,0.34,6.39,0.84,10.92    c1.18,8.57,2.35,12.27,5.04,15.13c2.86,3.19,7.06,4.71,11.26,4.71c8.07,0,13.45-5.04,15.63-13.95c0.67-2.52,0.84-5.04,1.51-12.94    c0.17-1.85,0.17-3.03,0.17-3.87V996.47z"/>
	</g>
	<path d="M176.12,836.67h56.83v124.61l87.98-124.61h71.14l-99.35,131.76l99.77,149.02h-67.78l-91.77-141.45v141.45h-56.83V836.67z"/>
	<path d="M579.84,1027.37c0,58.94-40.83,96.4-103.56,96.4c-59.36,0-101.03-39.99-101.03-95.98c0-58.52,40.83-97.24,102.72-97.24   C538.58,930.54,579.84,969.69,579.84,1027.37z M429.97,1026.95c0,31.57,18.1,52.2,46.73,52.2c29.05,0,48.41-19.79,48.41-51.78   c0-30.73-19.36-51.78-47.99-51.78C448.49,975.59,429.97,996.64,429.97,1026.95z"/>
	<path d="M594.99,939.81h50.52v22.73c16.42-21.47,32.84-29.47,59.36-29.47c24,0,44.2,9.68,52.2,25.26   c5.47,9.68,8.42,24.84,8.42,41.26v117.87h-52.62v-103.98c0-25.26-8.84-35.78-29.05-35.78c-24,0-36.2,16.84-36.2,50.1v89.67h-52.62   V939.81z"/>
	<path d="M784.01,939.81h50.52v22.73c16.42-21.47,32.84-29.47,59.36-29.47c24,0,44.2,9.68,52.2,25.26   c5.47,9.68,8.42,24.84,8.42,41.26v117.87h-52.62v-103.98c0-25.26-8.84-35.78-29.05-35.78c-24,0-36.2,16.84-36.2,50.1v89.67h-52.62   V939.81z"/>
	<path d="M1148.15,1076.62c-15.58,30.31-47.15,47.57-86.3,47.57c-55.99,0-93.46-37.47-93.46-93.88c0-58.52,37.47-97.24,94.72-97.24   c54.31,0,89.25,36.2,89.25,92.61v17.68H1022.7c2.95,24.84,16.84,37.89,40.41,37.89c19.79,0,31.57-7.58,41.68-26.1L1148.15,1076.62z    M1100.16,1009.27c-2.95-23.57-16.84-37.47-38.31-37.47c-20.63,0-34.94,13.89-39.57,37.47H1100.16z"/>
	<path d="M1313.17,1111.56c-18.94,8-35.78,11.37-55.57,11.37c-55.99,0-95.14-37.89-95.14-91.77c0-55.99,42.52-96.82,100.19-96.82   c15.58,0,29.47,2.53,49.67,9.26v53.46c-16.84-13.89-29.47-19.36-45.04-19.36c-28.21,0-49.67,21.89-49.67,50.94   c0,29.89,20.21,51.36,48.41,51.36c18.1,0,35.36-7.16,47.15-19.36V1111.56z"/>
	<path d="M1323.28,939.81h25.26v-57.25h52.62v57.25h29.05v43.36h-29.05v134.29h-52.62V983.17h-25.26V939.81z"/>
	<path class="st1" d="M1707.48,1000l-214.77,93.87l-10.55,5.99c27.79,31.71,68.58,51.74,114.06,51.74   c83.73,0,151.6-67.87,151.6-151.6s-67.87-151.6-151.6-151.6c-45.48,0-86.27,20.03-114.06,51.74l10.55,5.99L1707.48,1000z"/>
	<g>
		<defs>
			<path id="SVGID_1_" d="M1596.22,772.34c-73.88,0-139.54,35.21-181.13,89.75l67.07,38.06c27.79-31.71,68.58-51.74,114.06-51.74     c83.73,0,151.6,67.87,151.6,151.6s-67.87,151.6-151.6,151.6c-45.48,0-86.27-20.03-114.06-51.74l-67.07,38.06     c41.59,54.54,107.24,89.75,181.13,89.75c125.74,0,227.66-101.93,227.66-227.66S1721.95,772.34,1596.22,772.34z"/>
		</defs>
		<use xlink:href="#SVGID_1_" style="overflow:visible;"/>
		<clipPath id="SVGID_00000110451544301885421600000017043049472455703432_">
			<use xlink:href="#SVGID_1_" style="overflow:visible;"/>
		</clipPath>
		<path style="clip-path:url(#SVGID_00000110451544301885421600000017043049472455703432_);" d="M1596.22,772.34    c-125.73,0-227.66,101.93-227.66,227.66s101.93,227.66,227.66,227.66s227.66-101.93,227.66-227.66S1721.95,772.34,1596.22,772.34z     M1596.22,1151.6c-83.73,0-151.6-67.87-151.6-151.6s67.87-151.6,151.6-151.6s151.6,67.87,151.6,151.6    S1679.95,1151.6,1596.22,1151.6z"/>
	</g>
</g>
</svg>